<svg width="182" height="31" viewBox="0 0 182 31" fill="none" xmlns="http://www.w3.org/2000/svg">
<path d="M5.65341 30H0.994318L11.4631 0.90909H16.5341L27.0028 30H22.3438L14.1193 6.19318H13.892L5.65341 30ZM6.43466 18.608H21.5483V22.3011H6.43466V18.608ZM49.9112 0.90909H54.3146V20.0426C54.3146 22.0786 53.8364 23.8826 52.88 25.4545C51.9235 27.017 50.5788 28.2481 48.8459 29.1477C47.1129 30.0379 45.0817 30.483 42.7521 30.483C40.4321 30.483 38.4055 30.0379 36.6726 29.1477C34.9396 28.2481 33.5949 27.017 32.6385 25.4545C31.6821 23.8826 31.2038 22.0786 31.2038 20.0426V0.90909H35.593V19.6875C35.593 21.0038 35.8819 22.1733 36.4595 23.196C37.0466 24.2188 37.8752 25.0237 38.9453 25.6108C40.0154 26.1884 41.2843 26.4773 42.7521 26.4773C44.2294 26.4773 45.5031 26.1884 46.5732 25.6108C47.6527 25.0237 48.4766 24.2188 49.0447 23.196C49.6224 22.1733 49.9112 21.0038 49.9112 19.6875V0.90909ZM84.858 10.3693H80.4261C80.2557 9.42235 79.9384 8.58901 79.4744 7.86932C79.0104 7.14962 78.4422 6.53883 77.7699 6.03693C77.0975 5.53504 76.3447 5.15625 75.5114 4.90057C74.6875 4.64489 73.8116 4.51705 72.8835 4.51705C71.2074 4.51705 69.7064 4.93845 68.3807 5.78125C67.0644 6.62405 66.0227 7.85985 65.2557 9.48864C64.4981 11.1174 64.1193 13.1061 64.1193 15.4545C64.1193 17.822 64.4981 19.8201 65.2557 21.4489C66.0227 23.0777 67.0691 24.3087 68.3949 25.142C69.7206 25.9754 71.2121 26.392 72.8693 26.392C73.7879 26.392 74.6591 26.2689 75.483 26.0227C76.3163 25.767 77.0691 25.393 77.7415 24.9006C78.4138 24.4081 78.982 23.8068 79.446 23.0966C79.9195 22.3769 80.2462 21.553 80.4261 20.625L84.858 20.6392C84.6212 22.0691 84.1619 23.3854 83.4801 24.5881C82.8078 25.7812 81.9413 26.8134 80.8807 27.6847C79.8295 28.5464 78.6269 29.214 77.2727 29.6875C75.9186 30.161 74.4413 30.3977 72.8409 30.3977C70.322 30.3977 68.0777 29.8011 66.108 28.608C64.1383 27.4053 62.5852 25.6866 61.4489 23.4517C60.322 21.2169 59.7585 18.5511 59.7585 15.4545C59.7585 12.3485 60.3267 9.68276 61.4631 7.45739C62.5994 5.22254 64.1525 3.50852 66.1222 2.31534C68.0919 1.11269 70.3314 0.511363 72.8409 0.511363C74.3845 0.511363 75.8239 0.733901 77.1591 1.17898C78.5038 1.61458 79.7112 2.25852 80.7812 3.1108C81.8513 3.9536 82.7367 4.9858 83.4375 6.20739C84.1383 7.41951 84.6117 8.80682 84.858 10.3693ZM88.6754 4.6875V0.90909H111.19V4.6875H102.113V30H97.7379V4.6875H88.6754ZM120.554 0.90909V30H116.165V0.90909H120.554ZM152.216 15.4545C152.216 18.5606 151.648 21.2311 150.511 23.4659C149.375 25.6913 147.817 27.4053 145.838 28.608C143.868 29.8011 141.629 30.3977 139.119 30.3977C136.6 30.3977 134.351 29.8011 132.372 28.608C130.402 27.4053 128.849 25.6866 127.713 23.4517C126.577 21.2169 126.009 18.5511 126.009 15.4545C126.009 12.3485 126.577 9.68276 127.713 7.45739C128.849 5.22254 130.402 3.50852 132.372 2.31534C134.351 1.11269 136.6 0.511363 139.119 0.511363C141.629 0.511363 143.868 1.11269 145.838 2.31534C147.817 3.50852 149.375 5.22254 150.511 7.45739C151.648 9.68276 152.216 12.3485 152.216 15.4545ZM147.869 15.4545C147.869 13.0871 147.486 11.0937 146.719 9.47443C145.961 7.84564 144.92 6.61458 143.594 5.78125C142.277 4.93845 140.786 4.51705 139.119 4.51705C137.443 4.51705 135.947 4.93845 134.631 5.78125C133.314 6.61458 132.273 7.84564 131.506 9.47443C130.748 11.0937 130.369 13.0871 130.369 15.4545C130.369 17.822 130.748 19.8201 131.506 21.4489C132.273 23.0682 133.314 24.2992 134.631 25.142C135.947 25.9754 137.443 26.392 139.119 26.392C140.786 26.392 142.277 25.9754 143.594 25.142C144.92 24.2992 145.961 23.0682 146.719 21.4489C147.486 19.8201 147.869 17.822 147.869 15.4545ZM181.168 0.90909V30H177.134L162.347 8.66477H162.077V30H157.688V0.90909H161.751L176.552 22.2727H176.822V0.90909H181.168Z" fill="#D41E1E"/>
<path d="M5.65341 30V31H6.36553L6.59842 30.327L5.65341 30ZM0.994318 30L0.0533898 29.6614L-0.428325 31H0.994318V30ZM11.4631 0.90909V-0.09091H10.7602L10.5221 0.570484L11.4631 0.90909ZM16.5341 0.90909L17.475 0.570484L17.237 -0.09091H16.5341V0.90909ZM27.0028 30V31H28.4255L27.9438 29.6614L27.0028 30ZM22.3438 30L21.3986 30.3265L21.6312 31H22.3438V30ZM14.1193 6.19318L15.0645 5.86665L14.8318 5.19318H14.1193V6.19318ZM13.892 6.19318V5.19318H13.1799L12.947 5.86615L13.892 6.19318ZM6.43466 18.608V17.608H5.43466V18.608H6.43466ZM21.5483 18.608H22.5483V17.608H21.5483V18.608ZM21.5483 22.3011V23.3011H22.5483V22.3011H21.5483ZM6.43466 22.3011H5.43466V23.3011H6.43466V22.3011ZM5.65341 29H0.994318V31H5.65341V29ZM1.93525 30.3386L12.404 1.2477L10.5221 0.570484L0.0533898 29.6614L1.93525 30.3386ZM11.4631 1.90909H16.5341V-0.09091H11.4631V1.90909ZM15.5932 1.2477L26.0619 30.3386L27.9438 29.6614L17.475 0.570484L15.5932 1.2477ZM27.0028 29H22.3438V31H27.0028V29ZM23.2889 29.6735L15.0645 5.86665L13.1741 6.51971L21.3986 30.3265L23.2889 29.6735ZM14.1193 5.19318H13.892V7.19318H14.1193V5.19318ZM12.947 5.86615L4.7084 29.673L6.59842 30.327L14.8371 6.52021L12.947 5.86615ZM6.43466 19.608H21.5483V17.608H6.43466V19.608ZM20.5483 18.608V22.3011H22.5483V18.608H20.5483ZM21.5483 21.3011H6.43466V23.3011H21.5483V21.3011ZM7.43466 22.3011V18.608H5.43466V22.3011H7.43466ZM49.9112 0.90909V-0.09091H48.9112V0.90909H49.9112ZM54.3146 0.90909H55.3146V-0.09091H54.3146V0.90909ZM52.88 25.4545L53.7329 25.9766L53.7343 25.9743L52.88 25.4545ZM48.8459 29.1477L49.3028 30.0372L49.3066 30.0353L48.8459 29.1477ZM36.6726 29.1477L36.2118 30.0353L36.2157 30.0372L36.6726 29.1477ZM32.6385 25.4545L31.7842 25.9743L31.7856 25.9766L32.6385 25.4545ZM31.2038 0.90909V-0.09091H30.2038V0.90909H31.2038ZM35.593 0.90909H36.593V-0.09091H35.593V0.90909ZM36.4595 23.196L35.5888 23.6878L35.5923 23.6939L36.4595 23.196ZM38.9453 25.6108L38.4643 26.4875L38.4703 26.4908L38.9453 25.6108ZM46.5732 25.6108L47.0482 26.4908L47.0509 26.4893L46.5732 25.6108ZM49.0447 23.196L48.174 22.7042L48.1706 22.7104L49.0447 23.196ZM49.9112 1.90909H54.3146V-0.09091H49.9112V1.90909ZM53.3146 0.90909V20.0426H55.3146V0.90909H53.3146ZM53.3146 20.0426C53.3146 21.9154 52.8769 23.5358 52.0257 24.9348L53.7343 25.9743C54.7959 24.2294 55.3146 22.2418 55.3146 20.0426H53.3146ZM52.0271 24.9325C51.172 26.3294 49.9676 27.4387 48.3851 28.2602L49.3066 30.0353C51.1901 29.0575 52.6751 27.7047 53.7329 25.9766L52.0271 24.9325ZM48.389 28.2582C46.8225 29.0628 44.9536 29.483 42.7521 29.483V31.483C45.2097 31.483 47.4034 31.0129 49.3028 30.0372L48.389 28.2582ZM42.7521 29.483C40.5608 29.483 38.6965 29.0631 37.1295 28.2582L36.2157 30.0372C38.1146 31.0126 40.3033 31.483 42.7521 31.483V29.483ZM37.1333 28.2602C35.5509 27.4387 34.3465 26.3294 33.4914 24.9325L31.7856 25.9766C32.8434 27.7047 34.3284 29.0575 36.2118 30.0353L37.1333 28.2602ZM33.4928 24.9348C32.6416 23.5358 32.2038 21.9154 32.2038 20.0426H30.2038C30.2038 22.2418 30.7225 24.2294 31.7842 25.9743L33.4928 24.9348ZM32.2038 20.0426V0.90909H30.2038V20.0426H32.2038ZM31.2038 1.90909H35.593V-0.09091H31.2038V1.90909ZM34.593 0.90909V19.6875H36.593V0.90909H34.593ZM34.593 19.6875C34.593 21.1549 34.9166 22.4976 35.5888 23.6878L37.3302 22.7042C36.8472 21.849 36.593 20.8527 36.593 19.6875H34.593ZM35.5923 23.6939C36.2742 24.8817 37.239 25.8152 38.4643 26.4875L39.4263 24.7341C38.5114 24.2321 37.8191 23.5558 37.3268 22.6982L35.5923 23.6939ZM38.4703 26.4908C39.7136 27.162 41.1526 27.4773 42.7521 27.4773V25.4773C41.4161 25.4773 40.3171 25.2149 39.4203 24.7308L38.4703 26.4908ZM42.7521 27.4773C44.3599 27.4773 45.804 27.1624 47.0482 26.4908L46.0981 24.7308C45.2022 25.2145 44.0989 25.4773 42.7521 25.4773V27.4773ZM47.0509 26.4893C48.2884 25.8163 49.2538 24.8789 49.9189 23.6817L48.1706 22.7104C47.6993 23.5586 47.017 24.2311 46.0954 24.7323L47.0509 26.4893ZM49.9155 23.6878C50.5877 22.4976 50.9112 21.1549 50.9112 19.6875H48.9112C48.9112 20.8527 48.6571 21.849 48.174 22.7042L49.9155 23.6878ZM50.9112 19.6875V0.90909H48.9112V19.6875H50.9112ZM84.858 10.3693V11.3693H86.0279L85.8458 10.2137L84.858 10.3693ZM80.4261 10.3693L79.442 10.5465L79.5901 11.3693H80.4261V10.3693ZM77.7699 6.03693L78.3681 5.23558L78.3681 5.23558L77.7699 6.03693ZM75.5114 4.90057L75.215 5.85564L75.218 5.85658L75.5114 4.90057ZM68.3807 5.78125L67.8442 4.93734L67.8415 4.93909L68.3807 5.78125ZM65.2557 9.48864L64.351 9.06258L64.349 9.0669L65.2557 9.48864ZM65.2557 21.4489L64.349 21.8706L64.351 21.8749L65.2557 21.4489ZM68.3949 25.142L67.8627 25.9887L67.8627 25.9887L68.3949 25.142ZM75.483 26.0227L75.7693 26.9809L75.7763 26.9787L75.483 26.0227ZM77.7415 24.9006L77.1506 24.0938L77.7415 24.9006ZM79.446 23.0966L78.6106 22.547L78.6089 22.5496L79.446 23.0966ZM80.4261 20.625L80.4293 19.625L79.6019 19.6224L79.4444 20.4347L80.4261 20.625ZM84.858 20.6392L85.8445 20.8025L86.0365 19.643L84.8612 19.6392L84.858 20.6392ZM83.4801 24.5881L82.6102 24.0949L82.6089 24.0972L83.4801 24.5881ZM80.8807 27.6847L81.5147 28.458L81.5154 28.4574L80.8807 27.6847ZM77.2727 29.6875L77.6028 30.6315L77.6028 30.6315L77.2727 29.6875ZM66.108 28.608L65.5868 29.4614L65.5898 29.4633L66.108 28.608ZM61.4489 23.4517L60.5559 23.9019L60.5575 23.905L61.4489 23.4517ZM61.4631 7.45739L62.3537 7.91216L62.3545 7.91063L61.4631 7.45739ZM66.1222 2.31534L66.6403 3.17065L66.6433 3.16882L66.1222 2.31534ZM77.1591 1.17898L76.8429 2.12769L76.8509 2.13031L77.1591 1.17898ZM80.7812 3.1108L80.1582 3.89302L80.1625 3.89639L80.7812 3.1108ZM83.4375 6.20739L82.5701 6.70497L82.5718 6.70789L83.4375 6.20739ZM84.858 9.36932H80.4261V11.3693H84.858V9.36932ZM81.4103 10.1922C81.2194 9.13135 80.8587 8.17095 80.3149 7.32744L78.634 8.41119C79.0182 9.00708 79.292 9.71334 79.442 10.5465L81.4103 10.1922ZM80.3149 7.32744C79.7876 6.5096 79.138 5.81031 78.3681 5.23558L77.1717 6.83828C77.7465 7.26734 78.2332 7.78964 78.634 8.41119L80.3149 7.32744ZM78.3681 5.23558C77.6002 4.66236 76.7434 4.23258 75.8047 3.94455L75.218 5.85658C75.946 6.07992 76.5949 6.40772 77.1717 6.83828L78.3681 5.23558ZM75.8078 3.9455C74.8809 3.65786 73.9044 3.51705 72.8835 3.51705V5.51705C73.7187 5.51705 74.4941 5.63191 75.215 5.85563L75.8078 3.9455ZM72.8835 3.51705C71.0307 3.51705 69.3412 3.98568 67.8442 4.93734L68.9172 6.62516C70.0717 5.89121 71.3841 5.51705 72.8835 5.51705V3.51705ZM67.8415 4.93909C66.3437 5.8981 65.1858 7.28988 64.351 9.06258L66.1604 9.91469C66.8597 8.42982 67.7851 7.35001 68.9199 6.62341L67.8415 4.93909ZM64.349 9.0669C63.5141 10.8618 63.1193 13.0033 63.1193 15.4545H65.1193C65.1193 13.2089 65.4821 11.373 66.1624 9.91037L64.349 9.0669ZM63.1193 15.4545C63.1193 17.9234 63.5137 20.0747 64.349 21.8706L66.1624 21.0271C65.4825 19.5654 65.1193 17.7205 65.1193 15.4545H63.1193ZM64.351 21.8749C65.187 23.6501 66.352 25.0391 67.8627 25.9887L68.9271 24.2954C67.7863 23.5783 66.8585 22.5052 66.1604 21.0228L64.351 21.8749ZM67.8627 25.9887C69.3573 26.9282 71.0353 27.392 72.8693 27.392V25.392C71.3889 25.392 70.0839 25.0226 68.9271 24.2954L67.8627 25.9887ZM72.8693 27.392C73.8782 27.392 74.8464 27.2567 75.7693 26.9809L75.1966 25.0646C74.4718 25.2812 73.6975 25.392 72.8693 25.392V27.392ZM75.7763 26.9787C76.7115 26.6918 77.5658 26.2688 78.3323 25.7073L77.1506 24.0938C76.5725 24.5172 75.9211 24.8423 75.1896 25.0667L75.7763 26.9787ZM78.3323 25.7073C79.1035 25.1425 79.7546 24.4526 80.2832 23.6435L78.6089 22.5496C78.2094 23.161 77.7241 23.6738 77.1506 24.0938L78.3323 25.7073ZM80.2814 23.6462C80.8334 22.8073 81.2055 21.859 81.4079 20.8153L79.4444 20.4347C79.2869 21.2471 79.0056 21.9465 78.6106 22.547L80.2814 23.6462ZM80.4229 21.625L84.8547 21.6392L84.8612 19.6392L80.4293 19.625L80.4229 21.625ZM83.8714 20.4759C83.6529 21.7955 83.2313 22.9994 82.6102 24.0949L84.35 25.0813C85.0926 23.7715 85.5895 22.3427 85.8445 20.8025L83.8714 20.4759ZM82.6089 24.0972C81.9974 25.1823 81.2112 26.1191 80.2459 26.9119L81.5154 28.4574C82.6714 27.5078 83.6181 26.3802 84.3513 25.079L82.6089 24.0972ZM80.2467 26.9113C79.291 27.6948 78.1925 28.3065 76.9427 28.7435L77.6028 30.6315C79.0613 30.1215 80.3681 29.398 81.5147 28.458L80.2467 26.9113ZM76.9427 28.7435C75.7061 29.1759 74.3418 29.3977 72.8409 29.3977V31.3977C74.5408 31.3977 76.131 31.1461 77.6028 30.6315L76.9427 28.7435ZM72.8409 29.3977C70.4869 29.3977 68.425 28.8424 66.6261 27.7526L65.5898 29.4633C67.7303 30.7599 70.157 31.3977 72.8409 31.3977V29.3977ZM66.6291 27.7545C64.8311 26.6567 63.4002 25.083 62.3402 22.9985L60.5575 23.905C61.7703 26.2901 63.4454 28.154 65.5868 29.4614L66.6291 27.7545ZM62.3418 23.0015C61.3 20.9355 60.7585 18.4311 60.7585 15.4545H58.7585C58.7585 18.6711 59.3439 21.4982 60.556 23.9019L62.3418 23.0015ZM60.7585 15.4545C60.7585 12.4689 61.3046 9.96663 62.3537 7.91216L60.5725 7.00261C59.3488 9.3989 58.7585 12.228 58.7585 15.4545H60.7585ZM62.3545 7.91063C63.4141 5.82669 64.8441 4.25871 66.6403 3.17065L65.604 1.46003C63.4608 2.75833 61.7848 4.61838 60.5717 7.00414L62.3545 7.91063ZM66.6433 3.16882C68.4424 2.07031 70.4987 1.51136 72.8409 1.51136V-0.488637C70.1642 -0.488637 67.7413 0.155069 65.601 1.46186L66.6433 3.16882ZM72.8409 1.51136C74.2873 1.51136 75.619 1.7197 76.8429 2.12766L77.4753 0.230294C76.0288 -0.251894 74.4816 -0.488637 72.8409 -0.488637V1.51136ZM76.8509 2.13031C78.0852 2.53015 79.1852 3.11804 80.1582 3.89301L81.4043 2.32858C80.2371 1.399 78.9224 0.699012 77.4673 0.227648L76.8509 2.13031ZM80.1625 3.89639C81.1286 4.6573 81.9308 5.59058 82.5701 6.70497L84.3049 5.7098C83.5427 4.38101 82.574 3.2499 81.4 2.3252L80.1625 3.89639ZM82.5718 6.70789C83.2035 7.80064 83.6406 9.0683 83.8701 10.525L85.8458 10.2137C85.5829 8.54533 85.073 7.03837 84.3032 5.70688L82.5718 6.70789ZM88.6754 4.6875H87.6754V5.6875H88.6754V4.6875ZM88.6754 0.90909V-0.09091H87.6754V0.90909H88.6754ZM111.19 0.90909H112.19V-0.09091H111.19V0.90909ZM111.19 4.6875V5.6875H112.19V4.6875H111.19ZM102.113 4.6875V3.6875H101.113V4.6875H102.113ZM102.113 30V31H103.113V30H102.113ZM97.7379 30H96.7379V31H97.7379V30ZM97.7379 4.6875H98.7379V3.6875H97.7379V4.6875ZM89.6754 4.6875V0.90909H87.6754V4.6875H89.6754ZM88.6754 1.90909H111.19V-0.09091H88.6754V1.90909ZM110.19 0.90909V4.6875H112.19V0.90909H110.19ZM111.19 3.6875H102.113V5.6875H111.19V3.6875ZM101.113 4.6875V30H103.113V4.6875H101.113ZM102.113 29H97.7379V31H102.113V29ZM98.7379 30V4.6875H96.7379V30H98.7379ZM97.7379 3.6875H88.6754V5.6875H97.7379V3.6875ZM120.554 0.90909H121.554V-0.09091H120.554V0.90909ZM120.554 30V31H121.554V30H120.554ZM116.165 30H115.165V31H116.165V30ZM116.165 0.90909V-0.09091H115.165V0.90909H116.165ZM119.554 0.90909V30H121.554V0.90909H119.554ZM120.554 29H116.165V31H120.554V29ZM117.165 30V0.90909H115.165V30H117.165ZM116.165 1.90909H120.554V-0.09091H116.165V1.90909ZM150.511 23.4659L151.402 23.9207L151.403 23.9192L150.511 23.4659ZM145.838 28.608L146.356 29.4633L146.357 29.4625L145.838 28.608ZM132.372 28.608L131.851 29.4615L131.856 29.4644L132.372 28.608ZM127.713 23.4517L128.604 22.9985L128.604 22.9985L127.713 23.4517ZM127.713 7.45739L128.604 7.91216L128.604 7.91063L127.713 7.45739ZM132.372 2.31534L132.89 3.17065L132.891 3.16993L132.372 2.31534ZM145.838 2.31534L145.317 3.16884L145.322 3.17175L145.838 2.31534ZM150.511 7.45739L149.62 7.91063L149.621 7.91216L150.511 7.45739ZM146.719 9.47443L145.812 9.89617L145.815 9.90252L146.719 9.47443ZM143.594 5.78125L143.055 6.62344L143.062 6.62789L143.594 5.78125ZM134.631 5.78125L135.166 6.62617L135.17 6.62341L134.631 5.78125ZM131.506 9.47443L130.601 9.04838L130.6 9.05068L131.506 9.47443ZM131.506 21.4489L130.599 21.8706L130.602 21.8769L131.506 21.4489ZM134.631 25.142L134.091 25.9842L134.096 25.987L134.631 25.142ZM143.594 25.142L144.129 25.987L144.13 25.986L143.594 25.142ZM146.719 21.4489L145.814 21.0228L145.813 21.0251L146.719 21.4489ZM151.216 15.4545C151.216 18.44 150.67 20.9478 149.62 23.0127L151.403 23.9192C152.626 21.5143 153.216 18.6812 153.216 15.4545H151.216ZM149.621 23.0111C148.562 25.0849 147.127 26.6546 145.319 27.7534L146.357 29.4625C148.507 28.156 150.188 26.2976 151.402 23.9207L149.621 23.0111ZM145.32 27.7526C143.52 28.8428 141.463 29.3977 139.119 29.3977V31.3977C141.795 31.3977 144.216 30.7595 146.356 29.4633L145.32 27.7526ZM139.119 29.3977C136.765 29.3977 134.698 28.8424 132.888 27.7515L131.856 29.4644C134.005 30.7599 136.435 31.3977 139.119 31.3977V29.3977ZM132.893 27.7545C131.095 26.6567 129.664 25.083 128.604 22.9985L126.822 23.905C128.034 26.2901 129.71 28.154 131.851 29.4614L132.893 27.7545ZM128.604 22.9985C127.554 20.9332 127.009 18.43 127.009 15.4545H125.009C125.009 18.6723 125.599 21.5005 126.822 23.905L128.604 22.9985ZM127.009 15.4545C127.009 12.4689 127.555 9.96663 128.604 7.91216L126.822 7.00261C125.599 9.3989 125.009 12.228 125.009 15.4545H127.009ZM128.604 7.91063C129.664 5.82669 131.094 4.25871 132.89 3.17065L131.854 1.46003C129.711 2.75833 128.035 4.61838 126.822 7.00414L128.604 7.91063ZM132.891 3.16993C134.7 2.07067 136.767 1.51136 139.119 1.51136V-0.488637C136.434 -0.488637 134.002 0.15471 131.853 1.46075L132.891 3.16993ZM139.119 1.51136C141.462 1.51136 143.518 2.07031 145.317 3.16882L146.359 1.46186C144.219 0.155069 141.796 -0.488637 139.119 -0.488637V1.51136ZM145.322 3.17175C147.127 4.26011 148.561 5.82792 149.62 7.91063L151.403 7.00414C150.189 4.61716 148.507 2.75693 146.354 1.45893L145.322 3.17175ZM149.621 7.91216C150.67 9.96663 151.216 12.4689 151.216 15.4545H153.216C153.216 12.228 152.626 9.3989 151.402 7.00261L149.621 7.91216ZM148.869 15.4545C148.869 12.9845 148.47 10.8352 147.622 9.04634L145.815 9.90252C146.502 11.3523 146.869 13.1897 146.869 15.4545H148.869ZM147.625 9.0527C146.799 7.27552 145.638 5.88498 144.126 4.93461L143.062 6.62789C144.201 7.34418 145.123 8.41577 145.812 9.89616L147.625 9.0527ZM144.133 4.93909C142.645 3.9863 140.964 3.51705 139.119 3.51705V5.51705C140.608 5.51705 141.91 5.8906 143.055 6.62341L144.133 4.93909ZM139.119 3.51705C137.267 3.51705 135.58 3.9857 134.091 4.93909L135.17 6.62341C136.313 5.8912 137.62 5.51705 139.119 5.51705V3.51705ZM134.096 4.93634C132.595 5.88636 131.436 7.27501 130.601 9.04838L132.41 9.90048C133.109 8.41628 134.034 7.34281 135.166 6.62616L134.096 4.93634ZM130.6 9.05068C129.764 10.8383 129.369 12.986 129.369 15.4545H131.369C131.369 13.1883 131.733 11.3492 132.411 9.89819L130.6 9.05068ZM129.369 15.4545C129.369 17.9234 129.764 20.0747 130.599 21.8706L132.412 21.0271C131.733 19.5654 131.369 17.7205 131.369 15.4545H129.369ZM130.602 21.8769C131.437 23.6404 132.595 25.0261 134.091 25.9842L135.17 24.2999C134.034 23.5723 133.108 22.496 132.409 21.0208L130.602 21.8769ZM134.096 25.987C135.584 26.9293 137.269 27.392 139.119 27.392V25.392C137.618 25.392 136.31 25.0214 135.166 24.2971L134.096 25.987ZM139.119 27.392C140.962 27.392 142.641 26.9287 144.129 25.987L143.059 24.2971C141.914 25.022 140.61 25.392 139.119 25.392V27.392ZM144.13 25.986C145.638 25.0275 146.798 23.6399 147.625 21.8726L145.813 21.0251C145.125 22.4965 144.201 23.571 143.057 24.2981L144.13 25.986ZM147.623 21.8749C148.47 20.0778 148.869 17.9249 148.869 15.4545H146.869C146.869 17.7191 146.502 19.5623 145.814 21.0228L147.623 21.8749ZM181.168 0.90909H182.168V-0.09091H181.168V0.90909ZM181.168 30V31H182.168V30H181.168ZM177.134 30L176.312 30.5696L176.611 31H177.134V30ZM162.347 8.66477L163.169 8.09514L162.871 7.66477H162.347V8.66477ZM162.077 8.66477V7.66477H161.077V8.66477H162.077ZM162.077 30V31H163.077V30H162.077ZM157.688 30H156.688V31H157.688V30ZM157.688 0.90909V-0.09091H156.688V0.90909H157.688ZM161.751 0.90909L162.573 0.339596L162.274 -0.09091H161.751V0.90909ZM176.552 22.2727L175.73 22.8422L176.028 23.2727H176.552V22.2727ZM176.822 22.2727V23.2727H177.822V22.2727H176.822ZM176.822 0.90909V-0.09091H175.822V0.90909H176.822ZM180.168 0.90909V30H182.168V0.90909H180.168ZM181.168 29H177.134V31H181.168V29ZM177.956 29.4304L163.169 8.09514L161.525 9.23441L176.312 30.5696L177.956 29.4304ZM162.347 7.66477H162.077V9.66477H162.347V7.66477ZM161.077 8.66477V30H163.077V8.66477H161.077ZM162.077 29H157.688V31H162.077V29ZM158.688 30V0.90909H156.688V30H158.688ZM157.688 1.90909H161.751V-0.09091H157.688V1.90909ZM160.929 1.47858L175.73 22.8422L177.374 21.7032L162.573 0.339596L160.929 1.47858ZM176.552 23.2727H176.822V21.2727H176.552V23.2727ZM177.822 22.2727V0.90909H175.822V22.2727H177.822ZM176.822 1.90909H181.168V-0.09091H176.822V1.90909Z" fill="#D41E1E"/>
</svg>
