<?xml version="1.0" encoding="UTF-8"?>
<svg style="transform: scale(1)" width="88px" height="74"  preserveAspectRatio="xMidYMid meet" xmlns="http://www.w3.org/2000/svg" xmlns:xlink="http://www.w3.org/1999/xlink">
 <defs>
  <filter id="b">
   <feGaussianBlur stdDeviation=".35044"/>
  </filter>
  <linearGradient id="c">
   <stop stop-color="#888a85" offset="0"/>
   <stop stop-color="#888a85" stop-opacity="0" offset="1"/>
  </linearGradient>
  <linearGradient id="a" x1="111.27" x2="120.72" y1="255.7" y2="269.11" gradientUnits="userSpaceOnUse">
   <stop stop-color="#636a72" offset="0"/>
   <stop stop-color="#636a72" offset=".4158"/>
   <stop stop-color="#c4c4c6" offset=".51492"/>
   <stop stop-color="#e7e7e7" offset="1"/>
  </linearGradient>
  <linearGradient id="e" x1="102.62" x2="101.36" y1="109.11" y2="144.29" gradientUnits="userSpaceOnUse" xlink:href="#c"/>
  <linearGradient id="d" x1="83.959" x2="83.117" y1="75.126" y2="98.638" gradientUnits="userSpaceOnUse" xlink:href="#c"/>
 </defs>
  <g transform="translate(-118 -142)">
   <path d="m146.38 152.94 4.6875 12.75c-0.75471 1.0944-1.3977 2.2886-1.9092 3.5611-0.12457 0.30994-1.9288 0.12451-2.0375 0.44343s1.4789 1.1399 1.387 1.466c-0.37382 1.3256-0.61024 2.7173-0.69024 4.1545l-7.0625 3.2812 7.3438 1.375c0.41816 2.2474 1.2331 4.3364 2.3438 6.1875l-7.4375 3.4375 13.438 2.5312c2.2337 1.2878 4.7739 2.0312 7.4688 2.0312 0.31059 0 0.59998-0.0434 0.90625-0.0625l7.6875 6.2812-3.2812-7.2188c1.8954-0.73034 3.6269-1.8449 5.125-3.25l0.8125 0.15625 8.3438 6.8125-5.4062-11.969v-0.03125c0.44404-0.89937 0.79453-1.8592 1.0938-2.8438l2.5625 2.0938-2.0312-4.4688c0.17934-1.0596 0.3125-2.1335 0.3125-3.25 0-2.805-0.60259-5.4531-1.6562-7.8125l0.21875-0.65625-0.34375 0.34375c-1.0084-2.1521-2.4114-4.0652-4.0938-5.5938l2.6875-7.5-5.5938 5.4062c-1.7385-0.98161-2.532-1.8076-4.5634-2.0336-0.28997-0.03225-0.58224-5.6811-0.87661-5.6963-0.258-0.01336-1.6426 5.7924-1.9037 5.7924-2.3142 0-4.5098 0.5327-6.5 1.5l-0.78125-0.21875-10.25-7z" fill="#c4c4c4"/>
   <path transform="matrix(1.5758 0 0 1.3 -18.51 -165.47)" d="m124.25 261.92a8.3338 10.102 0 1 1 -16.668 0 8.3338 10.102 0 1 1 16.668 0z" fill="url(#a)" filter="url(#b)"/>
   <path d="m167.27196,183.72555c2.43498-.63238 4.09611-2.50654 3.89486-4.27247l.75183.1599-1.15913-1.60388c.12286-.24374.22625-.50369.31899-.76086l.26554.0279-.24315-.066c.31437-.89449.4493-1.86617.3607-2.83804l.61712-.48314 .30129-.20739-.0605.01571 .10528-.09192-1.10026-.13398-.03927-.15123c-.42164-1.62351-1.41055-2.9855-2.71851-3.8787l.15873-.88068-.73026.54481c-.99383-.54759-2.14431-.85111-3.32785-.87922-.59756-.01276-1.21434.04623-1.825.18338l-.12334-.22626 .06284.24197-.15123.03927c-.78588.20409-1.50016.52899-2.14399.94425l-1.94987-1.04337 1.27226,1.54221c-.6432.5284-1.20218,1.1449-1.6204,1.84144l-.7754-.25064 .64105.47925c-.05745.10418-.0894.2203-.14103.32721l-.20505-.04361 .16026.11981c-.22398.47983-.40727.97106-.51698,1.49031l-3.0997.86957 2.96689.35952c-.01146.59229.05811,1.21833.21362,1.81715 .04863.18727.10818.35734.17164.53658l-1.36308.96745 1.65806-.2046c.42781.85427 1.04026,1.59792 1.76325,2.18958l-.28757.88185 .95886-.41045c.22969.14617.46927.27353.71608.39519l-.14536.68348 .30247-.07855-.73459.90108 1.36426-.8386c.71388,1.60209 3.02923,2.40966 5.43564,1.78472z" fill="#2e3436"/>
   <path transform="translate(-.44194,-.88388)" d="m164.625,170.03125c-.43396-.00927-.87841.05415-1.34375.15625h-.03125l-.0625.03125c-.19116.0445-.20542.02899-.09375,0h-.03125c-.58168.1542-1.1031.40229-1.59375.71875-.09004.04956-.18413.09138-.28125.125l-.03125.03125c-.0566.07777-.1193.15092-.1875.21875-.50812.41743-.9266.88843-1.21875,1.375-.02861.05362-.0599.10577-.09375.15625 .05418-.09824-.00602.00362-.125.25 .00036.02083.00036.04167 0,.0625-.19226.41187-.33879.77446-.40625,1.09375-.03787.13046-.09028.25625-.15625.375 9e-005,.01042 9e-005,.02083 0,.03125 .04121.15285.06222.31044.0625.46875-.00803.41545.04194.87232.15625,1.3125 .05886.22668.112.40077.125.4375 .02826.09194.04916.18599.0625.28125 .05878.07895.11104.16256.15625.25 .3124.62383.7529,1.16137 1.28125,1.59375 .06699.05784.12966.12051.1875.1875l.0625.03125c.08643.03517.17001.07696.25.125 .1799.11449.38284.22394.5625.3125 .27956.14508.51651.36049.6875.625 .41407.17537.7482.49836.9375.90625 .21204.47586 1.54633,1.23992 3.3125.78125 1.77939-.46213 2.59053-1.79237 2.53125-2.3125-.00996-.15694.00055-.31452.03125-.46875l-.09375-.125c-.39767-.54695-.45791-1.26977-.15625-1.875 .10709-.21245.17253-.3571.21875-.46875l.03125-.09375c.2369-.67409.34316-1.41462.28125-2.09375-.01089-.11432-.01089-.22943 0-.34375-.04058-.10114-.07195-.20573-.09375-.3125-.04439-.19042-.0586-.19908-.03125-.09375-.31008-1.19393-1.04738-2.19321-2-2.84375-.04367-.03961-.08539-.08133-.125-.125l-.0625-.03125-.21875-.09375c-.71328-.39301-1.59358-.63472-2.5-.65625z"/>
   <path d="m150.56 186.29c10.326 9.9652 12.626 7.6248 14.05 7.6152-5.9063-1.8691-17.465-11.958-14.05-7.6152z" fill="#e2e2e3" fill-rule="evenodd"/>
  </g>
</svg>
