<?xml version="1.0" encoding="UTF-8"?>
<svg width="88px" height="74px" preserveAspectRatio="xMidYMid meet" xmlns="http://www.w3.org/2000/svg" xmlns:xlink="http://www.w3.org/1999/xlink">
  <defs>
    <filter id="b">
      <feGaussianBlur stdDeviation=".35044"/>
    </filter>
    <linearGradient id="c">
      <stop stop-color="#888a85" offset="0"/>
      <stop stop-color="#888a85" stop-opacity="0" offset="1"/>
    </linearGradient>
    <linearGradient id="a" x1="111.27" x2="120.72" y1="255.7" y2="269.11" gradientUnits="userSpaceOnUse">
      <stop stop-color="#636a72" offset="0"/>
      <stop stop-color="#636a72" offset=".4158"/>
      <stop stop-color="#c4c4c6" offset=".51492"/>
      <stop stop-color="#e7e7e7" offset="1"/>
    </linearGradient>
    <linearGradient id="e" x1="102.62" x2="101.36" y1="109.11" y2="144.29" gradientUnits="userSpaceOnUse" xlink:href="#c"/>
    <linearGradient id="d" x1="83.959" x2="83.117" y1="75.126" y2="98.638" gradientUnits="userSpaceOnUse" xlink:href="#c"/>
  </defs>
  <g transform="translate(-30 -60)">
    <path d="m67.031 72.531-5.3438 9.5625-6.9375-7.4062 4.7812 12.656c-1.5099 1.6396-5.1272 3.1498-5.551 4.5722 1.9161-0.00258 4.909 0.4643 3.528 3.1063-0.54901 2.9544 1.5829 6.0129 1.3575 8.5489-1.6752 1.3349-2.5828 3.8155 0.46003 3.448 1.8228-0.06456 4.2916 0.94575 2.8732 3.1163-0.48631 1.6389-1.6165 5.4648 1.4301 3.7602 2.5648-0.33353 5.5696-2.0419 7.8838-1.3881 1.1408 2.9051-0.50445 6.0342-0.1545 9.0546 0.84217-0.97164 1.5106-3.0057 2.3028-4.3694 0.97411-1.3763 1.345-3.9392 2.7225-4.522 2.5181-0.19864 6.1776-3.1851 7.3709 0.70431 0.46285 1.2295 2.0271 3.4386 1.7254 0.57677-0.60683-3.2776 0.59645-6.2302 3.0044-8.4304 0.77986-1.8991 3.7997-0.94825 4.1913-1.1031-0.23015-0.90862 2.2604 0.2271 0.87528-1.0694-1.5821-0.70995-4.0172-3.7674-0.71664-3.7 3.1591 0.00189 6.3186-0.0926 9.4783-0.14873l-10.469-4.0625c0.55838-0.77344 3.4054-2.1791 0.83118-2.0164-0.85703-1.3151 3.6803-1.4998 4.7958-2.473 0.86349-0.17412 3.209-1.1413 0.9228-1.0712-2.5326-0.57528-5.9012-0.25178-7.9096-1.3905 0.10312-2.6332 2.9011-4.1389 3.6582-6.5259-2.2008-0.30665-4.6703 0.89996-7.0055 0.6928-1.2319-0.81562 2.1745-2.3998 3.1218-3.1217 0.8715-0.53892 3.2147-2.1601 0.87841-1.3194-2.2331 0.55427-4.3922 1.4281-6.6256 1.8707-2.0446-1.495-0.82319-5.0893-2.7007-6.8603-1.7111 0.84227-3.7531 4.2342-5.3033 3.521 0.20019-1.5012-1.2075-2.6289-2.281-1.1603-0.33214-1.8435-0.8591 2.1766-2.2282 1.7972-2.7264 0.56747-3.0526-3.606-4.9605-4.841l-0.00623-0.00828z" fill="#c4c4c4" stroke="url(#d)" stroke-linecap="round" stroke-linejoin="round" stroke-width=".3"/>
    <path transform="matrix(1.5758 0 0 1.3 -106.97 -246.57)" d="m124.25 261.92a8.3338 10.102 0 1 1 -16.668 0 8.3338 10.102 0 1 1 16.668 0z" fill="url(#a)" filter="url(#b)"/>
    <path d="m77.111 83.851c-1.0344 0.88755-3.3012 3.533-4.2363 1.3066-0.35527 1.7253-0.91291-0.10623-0.9981 1.5036-0.81048 1.9583-4.6821-0.84601-3.3089 1.4545-0.14624 2.2094-1.9472 4.13-2.4342 5.9273 1.1492 1.4392 0.834 4.0676 2.3241 5.607 0.57049 1.6653 3.1 2.0705 4.6908 2.9126 2.037 1.1232 4.4794-0.74915 6.3448 0.69456 1.353 1.4326-0.82417-2.3268 1.2901-2.1743 2.5202 0.17074 1.2682-3.2449 3.8901-3.0488 1.3963-0.01659 3.4742-0.11985 1.0181-0.68167-2.5382-0.78235-1.0314-4.091-0.02787-4.4317-2.3135 0.05378-2.1768-3.7569-2.9456-4.1418-1.6837 0.12814-0.8219-2.4793-0.62849-2.126-1.9962 0.96494-4.2443-0.21821-4.7693-1.8302-0.03051-0.32954-0.0577-0.67-0.20929-0.97153z" fill="#232126"/>
  </g>
</svg>
