<?xml version="1.0" encoding="UTF-8"?>
<svg style="transform: scale(1)" width="88px" height="74px" preserveAspectRatio="xMidYMid meet" xmlns="http://www.w3.org/2000/svg" xmlns:xlink="http://www.w3.org/1999/xlink">
 <defs>
  <filter id="b">
   <feGaussianBlur stdDeviation=".35044"/>
  </filter>
  <linearGradient id="c">
   <stop stop-color="#888a85" offset="0"/>
   <stop stop-color="#888a85" stop-opacity="0" offset="1"/>
  </linearGradient>
  <linearGradient id="a" x1="111.27" x2="120.72" y1="255.7" y2="269.11" gradientUnits="userSpaceOnUse">
   <stop stop-color="#636a72" offset="0"/>
   <stop stop-color="#636a72" offset=".4158"/>
   <stop stop-color="#c4c4c6" offset=".51492"/>
   <stop stop-color="#e7e7e7" offset="1"/>
  </linearGradient>
  <linearGradient id="e" x1="102.62" x2="101.36" y1="109.11" y2="144.29" gradientUnits="userSpaceOnUse" xlink:href="#c"/>
  <linearGradient id="d" x1="83.959" x2="83.117" y1="75.126" y2="98.638" gradientUnits="userSpaceOnUse" xlink:href="#c"/>
 </defs>
 <g transform="translate(-310 -32)">
  <path d="m339.50133,31.20971c.9724,5.08544 9.39208,16.81678-1.5957,15.49482-4.15422-3.07291-12.23987-.43298-5.4183,3.68917 6.00319,6.37042-3.93827,11.86364-.97262,18.60179-1.44091,8.12504-11.31625,9.93276-17.48219,13.41306-1.35479,4.40667 7.3897-2.13843 10.19114-1.44222 2.15845-2.62294 3.60079,1.56366 6.63643-2.28257 7.16212,1.05375 8.85474,10.49237 16.06031,12.48382 3.79076,3.16229 1.29663,15.52545 6.47292,13.59667-.14422-5.9715 3.51576-14.0193 10.8113-11.75966 4.58618-1.44749 10.02001-5.33694 13.50124-1.50126-.0105-6.33303 2.8895-13.93613 10.39239-13.95441-8.94237-5.77474 6.83072-10.31562 10.65436-13.05267-3.71303-3.66818-15.94977.86993-16.37557-8.78118-1.50473-6.59294 14.57161-.48179 4.22024-4.29002-6.26159-.29218-12.98471-4.50636-7.47798-10.84621-2.60712-5.44628-10.32528,6.54133-16.25343,1.65445-5.38276-5.3581-13.82792,4.41687-17.50274-4.59314-1.83639-2.23959-3.44977-4.74574-5.8618-6.43046zm13.79254,73.45113c.67679.17246.05293-.76007 0,0zm-30.34359-26.65c.67788-1.01254-1.51265-.04846 0,0zm8.88333-11.03403-.42502-.08317 .42502.08317zm-.88833-2.29096c-.68215-.08625.13985.53248 0,0zm25.90192-28.47342c.10564.35102.10564-.35102 0,0zm.23377,0c-.62215.41486.41197.04034 0,0zm-.74807.32728c-1.19635.95695.59203.34435 0,0zm.65457.46754c-.06103.51879.46758-.6472 0,0zm-8.32228,2.43123c-.06447,1.29753.8643-.73899 0,0zm.42079.37403c.16701.38716.27626-.43256 0,0zm.51429,2.94553c.72393.24389-.40796.09532 0,0zm1.87018.37403c-.27139.2119-.03799-.45185 0,0zm1.96368.14026c.4062.26775-.35865.04919 0,0zm.46755.70132c-.50486.20518.00027-.84503 0,0zm-.79483.28053c-.46611.10706.21156-.98759 0,0zm-13.65228,1.82342c-.55569.71864.68146.02861 0,0zm3.45983.32728-.09486-.12945 .09486.12945zm-3.45983.28053v-.09421 .09421zm42.40623,6.07807c-.97046.17717 1.03546-.296 0,0zm2.05719.42079c.13915.69738.43047-.53864 0,0zm-54.09482,11.82886c1.11787.16203-1.68515-.68519 0,0zm.28053.14026c.23538.49506.39797-.79219 0,0zm1.07535.74807c.54657.41995.0937-.68347 0,0zm-6.26509,10.28596c-.24733.53512.23326-.52072 0,0zm-3.1793,1.35588c1.1507.14128-.23851-1.0033 0,0zm.37404-.04676 .09793-.10832-.09793.10832zm.32728.18702c.23643-.3539-.48717-.0442 0,0zm-.56105.42079c.92132.74858-.07758-1.06896 0,0zm67.93411,0c.39887.82686.60704-.71967 0,0zm-5.61053.28053c.33445.60658.02364-.72756 0,0zm8.5093.37404c.62464-.11256-.335-.589 0,0zm-59.56508-.04676-.1703-.07226 .1703.07226zm50.30771.28053c-.10452.98815.46695.06709 0,0zm-48.29727.23377c-.46324,1.12831-.44618-.91936 0,0zm-2.665.28053c.7244.68317.02476-.54763 0,0zm-4.67544.32728c.58424,2.49818-1.21985-.64988 0,0zm-2.38447,1.35588c-1.21318,2.5863 1.3327-.54359 0,0zm.04675.79483c-.01738,2.71573 1.71781-1.14908 0,0zm1.07535.04675c-1.08316.81175 1.32603.26637 0,0zm-14.72763,2.43123c.57163-.38846-1.25352-.52504 0,0zm63.49245,7.15342c-.58177.89326.67475-.51098 0,0zm3.74035.09351c-.54172.97762.4115-.26796 0,0zm-3.2728.37403c-.10452.98816.46694.06709 0,0zm3.50657,1.26237c-.92047,1.02483.8483-.29094 0,0zm-.37403.56105c.13055.86553.60664-.64466 0,0z" fill="#c4c4c4"/>
  <path transform="matrix(2.3576 0 0 1.945 85.143 -441.01)" d="m124.25 261.92a8.3338 10.102 0 1 1 -16.668 0 8.3338 10.102 0 1 1 16.668 0z" fill="url(#a)" filter="url(#b)"/>
  <path d="m355.01 54.026-0.46184 2.5863c-1.2767 0.43167-2.4074 1.0908-3.4176 1.9397l-3.3253-0.2771 1.4779 2.2168c-0.79365 1.1145-1.4341 2.413-1.755 3.7871l-1.1084 0.73894 0.92368 0.2771c-0.06156 0.46445-0.09237 0.90436-0.09237 1.3855 0 4.4346 2.7132 8.2557 6.5582 9.8834 1.162 2.3178 3.5775 3.9718 6.3734 3.9718 3.926 0 7.1124-3.145 7.1124-7.02 0-0.45457-0.10099-0.95496-0.18473-1.3855 0.95617-1.6031 1.5703-3.4495 1.5703-5.4497 0-2.5266-0.93657-4.8182-2.4016-6.6505l0.46184-0.55421-0.83132 0.09237c-1.0202-1.14-2.2737-2.0577-3.6947-2.6787l0.46184-1.4779-2.0321 1.016c-0.87201-0.22954-1.7349-0.46184-2.6787-0.46184-0.61401 0-1.2615 0.08537-1.8474 0.18474l-1.1084-2.1245z" fill="#232126"/>
 </g>
</svg>
