<svg width="25" height="25" viewBox="0 0 25 25" fill="none" xmlns="http://www.w3.org/2000/svg">
<mask id="mask0_115_7" style="mask-type:alpha" maskUnits="userSpaceOnUse" x="0" y="0" width="25" height="25">
<rect x="0.867432" y="0.447083" width="24" height="24" fill="#D9D9D9"/>
</mask>
<g mask="url(#mask0_115_7)">
<path d="M5.86743 21.4471C5.31743 21.4471 4.8466 21.2512 4.45493 20.8596C4.06326 20.4679 3.86743 19.9971 3.86743 19.4471V5.44708C3.86743 4.89708 4.06326 4.42625 4.45493 4.03458C4.8466 3.64292 5.31743 3.44708 5.86743 3.44708H14.8674V8.44708H16.8674V10.4471H21.8674V19.4471C21.8674 19.9971 21.6716 20.4679 21.2799 20.8596C20.8883 21.2512 20.4174 21.4471 19.8674 21.4471H5.86743ZM6.86743 17.4471H18.8674L15.1174 12.4471L12.1174 16.4471L9.86743 13.4471L6.86743 17.4471ZM17.8674 9.44708V7.44708H15.8674V5.44708H17.8674V3.44708H19.8674V5.44708H21.8674V7.44708H19.8674V9.44708H17.8674Z" fill="#1C1B1F"/>
</g>
</svg>
