<svg width="25" height="25" viewBox="0 0 25 25" fill="none" xmlns="http://www.w3.org/2000/svg">
<mask id="mask0_114_13" style="mask-type:alpha" maskUnits="userSpaceOnUse" x="0" y="0" width="25" height="25">
<rect x="0.629211" y="0.463135" width="24" height="24" rx="12" fill="#D9D9D9"/>
</mask>
<g mask="url(#mask0_114_13)">
<path d="M11.8006 22.4631C10.7029 22.4631 9.77706 21.6458 9.64091 20.5566L9.56393 19.9408C9.51178 19.5236 9.22589 19.1818 8.86672 18.9631V18.9631V18.9631C8.50815 18.7449 8.06779 18.6875 7.68079 18.8501L7.14298 19.0761C6.1061 19.5117 4.90702 19.1089 4.34351 18.1355L3.55034 16.7655C2.99569 15.8075 3.24187 14.5863 4.12437 13.918L4.8842 13.3426C5.05084 13.2164 5.12922 13.0097 5.12922 12.8006V12.8006V12.1256V12.1256C5.12922 11.9166 5.05084 11.7098 4.8842 11.5837L4.12437 11.0082C3.24187 10.3399 2.99569 9.11878 3.55034 8.16076L4.34351 6.79073C4.90702 5.8174 6.1061 5.41456 7.14298 5.85022L7.67107 6.07211C8.0641 6.23724 8.51098 6.17794 8.87922 5.96313V5.96313V5.96313C9.2378 5.75397 9.511 5.40892 9.56249 4.997L9.63788 4.39389C9.77576 3.29087 10.7134 2.46313 11.825 2.46313H13.4579C14.5555 2.46313 15.4814 3.28048 15.6175 4.36964L15.6945 4.98546C15.7467 5.40269 16.0326 5.74451 16.3917 5.96313V5.96313V5.96313C16.7503 6.18139 17.1907 6.23879 17.5777 6.07619L18.1155 5.85022C19.1523 5.41456 20.3514 5.8174 20.9149 6.79073L21.7081 8.16076C22.2628 9.11878 22.0166 10.3399 21.1341 11.0082L20.3742 11.5837C20.2076 11.7098 20.1292 11.9166 20.1292 12.1256V12.1256V12.8006V12.8006C20.1292 13.007 20.1876 13.2202 20.3521 13.3448L21.2035 13.9895C22.0321 14.617 22.2632 15.7635 21.7425 16.663L20.8827 18.148C20.3238 19.1135 19.1332 19.5114 18.1061 19.0762L17.5866 18.8561C17.1942 18.6898 16.7473 18.7484 16.3792 18.9631V18.9631V18.9631C16.0206 19.1723 15.7474 19.5173 15.696 19.9293L15.6206 20.5324C15.4827 21.6354 14.545 22.4631 13.4334 22.4631H11.8006ZM12.6792 15.9631C13.6459 15.9631 14.4709 15.6215 15.1542 14.9381C15.8376 14.2548 16.1792 13.4298 16.1792 12.4631C16.1792 11.4965 15.8376 10.6715 15.1542 9.98813C14.4709 9.3048 13.6459 8.96313 12.6792 8.96313C11.6959 8.96313 10.8667 9.3048 10.1917 9.98813C9.51672 10.6715 9.17922 11.4965 9.17922 12.4631C9.17922 13.4298 9.51672 14.2548 10.1917 14.9381C10.8667 15.6215 11.6959 15.9631 12.6792 15.9631ZM12.6792 13.9631C12.2626 13.9631 11.9084 13.8173 11.6167 13.5256C11.3251 13.234 11.1792 12.8798 11.1792 12.4631C11.1792 12.0465 11.3251 11.6923 11.6167 11.4006C11.9084 11.109 12.2626 10.9631 12.6792 10.9631C13.0959 10.9631 13.4501 11.109 13.7417 11.4006C14.0334 11.6923 14.1792 12.0465 14.1792 12.4631C14.1792 12.8798 14.0334 13.234 13.7417 13.5256C13.4501 13.8173 13.0959 13.9631 12.6792 13.9631ZM11.5085 19.4784C11.5774 20.0406 12.0549 20.4631 12.6213 20.4631V20.4631C13.1838 20.4631 13.6593 20.0464 13.7329 19.4887L13.802 18.9656C13.894 18.2691 14.4127 17.7221 15.0434 17.4126C15.162 17.3544 15.2781 17.2921 15.3917 17.2256C15.5014 17.1615 15.6087 17.094 15.7137 17.0232C16.2942 16.6319 17.0259 16.4628 17.6727 16.7307L18.1746 16.9385C18.6919 17.1527 19.2878 16.9495 19.5663 16.4638V16.4638C19.8452 15.9776 19.7191 15.3598 19.2719 15.0218L18.5101 14.4461C18.1495 14.1736 18.0214 13.6989 18.0792 13.2506V13.2506C18.1126 12.9923 18.1292 12.7298 18.1292 12.4631C18.1292 12.1965 18.1126 11.934 18.0792 11.6756V11.6756C18.0214 11.2274 18.1495 10.7527 18.5101 10.4802L19.2753 9.90189C19.7205 9.56536 19.8461 8.95027 19.5684 8.46613V8.46613C19.2893 7.97942 18.6905 7.77805 18.174 7.99717L17.6876 8.20351C17.0356 8.48014 16.2946 8.30113 15.7096 7.90177C15.6059 7.83098 15.4999 7.76393 15.3917 7.70063C15.2778 7.63401 15.1614 7.57153 15.0425 7.51322C14.4134 7.20467 13.8981 6.6558 13.8128 5.96029L13.75 5.44788C13.681 4.88564 13.2036 4.46313 12.6371 4.46313V4.46313C12.0746 4.46313 11.5992 4.8799 11.5255 5.43755L11.4564 5.9607C11.3644 6.65716 10.8458 7.2042 10.2151 7.51364C10.0965 7.57183 9.98036 7.63417 9.86672 7.70063C9.75709 7.76476 9.64977 7.83222 9.54475 7.90303C8.96428 8.29438 8.23251 8.46349 7.58571 8.19562L7.08041 7.98635C6.56509 7.77294 5.97144 7.97542 5.69395 8.45926V8.45926C5.41455 8.94641 5.54337 9.56552 5.9939 9.9008L6.73546 10.4527C7.10471 10.7274 7.24005 11.2069 7.17922 11.6631V11.6631C7.14589 11.9131 7.12922 12.1798 7.12922 12.4631C7.12922 12.7298 7.14589 12.9881 7.17922 13.2381V13.2381C7.24014 13.695 7.10664 14.1753 6.73891 14.4532L5.98319 15.0244C5.53794 15.3609 5.41234 15.976 5.69001 16.4601V16.4601C5.96915 16.9468 6.56794 17.1482 7.08445 16.9291L7.57082 16.7228C8.22289 16.4461 8.96383 16.6251 9.54884 17.0245C9.65255 17.0953 9.75851 17.1623 9.86672 17.2256C9.98064 17.2923 10.097 17.3547 10.216 17.4131C10.8451 17.7216 11.3603 18.2705 11.4456 18.966L11.5085 19.4784Z" fill="#F5F5F5"/>
</g>
</svg>
