<svg width="214" height="31" viewBox="0 0 214 31" fill="none" xmlns="http://www.w3.org/2000/svg">
<path d="M5.73864 0.90909L13.8352 24.6023H14.1619L22.2585 0.90909H27.0028L16.5341 30H11.4631L0.994318 0.90909H5.73864ZM30.6925 30H26.0334L36.5021 0.90909H41.5732L52.0419 30H47.3828L39.1584 6.19318H38.9311L30.6925 30ZM31.4737 18.608H46.5874V22.3011H31.4737V18.608ZM56.2429 30V0.90909H60.6321V26.2216H73.8139V30H56.2429ZM102.958 15.4545C102.958 18.5606 102.39 21.2311 101.254 23.4659C100.117 25.6913 98.5594 27.4053 96.5803 28.608C94.6106 29.8011 92.371 30.3977 89.8615 30.3977C87.3426 30.3977 85.0935 29.8011 83.1143 28.608C81.1446 27.4053 79.5916 25.6866 78.4553 23.4517C77.3189 21.2169 76.7507 18.5511 76.7507 15.4545C76.7507 12.3485 77.3189 9.68276 78.4553 7.45739C79.5916 5.22254 81.1446 3.50852 83.1143 2.31534C85.0935 1.11269 87.3426 0.511363 89.8615 0.511363C92.371 0.511363 94.6106 1.11269 96.5803 2.31534C98.5594 3.50852 100.117 5.22254 101.254 7.45739C102.39 9.68276 102.958 12.3485 102.958 15.4545ZM98.6115 15.4545C98.6115 13.0871 98.228 11.0937 97.4609 9.47443C96.7034 7.84564 95.6617 6.61458 94.3359 5.78125C93.0196 4.93845 91.5282 4.51705 89.8615 4.51705C88.1854 4.51705 86.6892 4.93845 85.3729 5.78125C84.0566 6.61458 83.0149 7.84564 82.2479 9.47443C81.4903 11.0937 81.1115 13.0871 81.1115 15.4545C81.1115 17.822 81.4903 19.8201 82.2479 21.4489C83.0149 23.0682 84.0566 24.2992 85.3729 25.142C86.6892 25.9754 88.1854 26.392 89.8615 26.392C91.5282 26.392 93.0196 25.9754 94.3359 25.142C95.6617 24.2992 96.7034 23.0682 97.4609 21.4489C98.228 19.8201 98.6115 17.822 98.6115 15.4545ZM108.43 30V0.90909H118.8C121.054 0.90909 122.924 1.29735 124.411 2.07386C125.907 2.85038 127.024 3.92519 127.763 5.2983C128.501 6.66193 128.871 8.23864 128.871 10.0284C128.871 11.8087 128.497 13.3759 127.749 14.7301C127.01 16.0748 125.893 17.1212 124.396 17.8693C122.91 18.6174 121.039 18.9915 118.786 18.9915H110.93V15.2131H118.388C119.808 15.2131 120.964 15.0095 121.854 14.6023C122.753 14.1951 123.411 13.6032 123.828 12.8267C124.245 12.0502 124.453 11.1174 124.453 10.0284C124.453 8.92992 124.24 7.97822 123.814 7.1733C123.397 6.36837 122.739 5.75284 121.839 5.3267C120.949 4.8911 119.78 4.6733 118.331 4.6733H112.82V30H108.43ZM122.791 16.875L129.979 30H124.979L117.933 16.875H122.791ZM136.669 30H132.01L142.479 0.90909H147.55L158.018 30H153.359L145.135 6.19318H144.908L136.669 30ZM137.45 18.608H152.564V22.3011H137.45V18.608ZM185.7 0.90909V30H181.665L166.879 8.66477H166.609V30H162.219V0.90909H166.282L181.083 22.2727H181.353V0.90909H185.7ZM190.668 4.6875V0.90909H213.182V4.6875H204.105V30H199.73V4.6875H190.668Z" fill="#D41E1E"/>
<path d="M5.73864 0.90909L6.68491 0.585723L6.45369 -0.09091H5.73864V0.90909ZM13.8352 24.6023L12.889 24.9256L13.1202 25.6023H13.8352V24.6023ZM14.1619 24.6023V25.6023H14.877L15.1082 24.9256L14.1619 24.6023ZM22.2585 0.90909V-0.09091H21.5435L21.3122 0.585723L22.2585 0.90909ZM27.0028 0.90909L27.9438 1.2477L28.4255 -0.09091H27.0028V0.90909ZM16.5341 30V31H17.237L17.475 30.3386L16.5341 30ZM11.4631 30L10.5221 30.3386L10.7602 31H11.4631V30ZM0.994318 0.90909V-0.09091H-0.428325L0.0533898 1.2477L0.994318 0.90909ZM4.79236 1.23246L12.889 24.9256L14.7815 24.2789L6.68491 0.585723L4.79236 1.23246ZM13.8352 25.6023H14.1619V23.6023H13.8352V25.6023ZM15.1082 24.9256L23.2048 1.23246L21.3122 0.585723L13.2157 24.2789L15.1082 24.9256ZM22.2585 1.90909H27.0028V-0.09091H22.2585V1.90909ZM26.0619 0.570484L15.5932 29.6614L17.475 30.3386L27.9438 1.2477L26.0619 0.570484ZM16.5341 29H11.4631V31H16.5341V29ZM12.404 29.6614L1.93525 0.570484L0.0533898 1.2477L10.5221 30.3386L12.404 29.6614ZM0.994318 1.90909H5.73864V-0.09091H0.994318V1.90909ZM30.6925 30V31H31.4046L31.6375 30.327L30.6925 30ZM26.0334 30L25.0925 29.6614L24.6107 31H26.0334V30ZM36.5021 0.90909V-0.09091H35.7992L35.5612 0.570484L36.5021 0.90909ZM41.5732 0.90909L42.5141 0.570484L42.2761 -0.09091H41.5732V0.90909ZM52.0419 30V31H53.4645L52.9828 29.6614L52.0419 30ZM47.3828 30L46.4376 30.3265L46.6703 31H47.3828V30ZM39.1584 6.19318L40.1036 5.86665L39.8709 5.19318H39.1584V6.19318ZM38.9311 6.19318V5.19318H38.219L37.9861 5.86615L38.9311 6.19318ZM31.4737 18.608V17.608H30.4737V18.608H31.4737ZM46.5874 18.608H47.5874V17.608H46.5874V18.608ZM46.5874 22.3011V23.3011H47.5874V22.3011H46.5874ZM31.4737 22.3011H30.4737V23.3011H31.4737V22.3011ZM30.6925 29H26.0334V31H30.6925V29ZM26.9743 30.3386L37.4431 1.2477L35.5612 0.570484L25.0925 29.6614L26.9743 30.3386ZM36.5021 1.90909H41.5732V-0.09091H36.5021V1.90909ZM40.6322 1.2477L51.101 30.3386L52.9828 29.6614L42.5141 0.570484L40.6322 1.2477ZM52.0419 29H47.3828V31H52.0419V29ZM48.328 29.6735L40.1036 5.86665L38.2132 6.51971L46.4376 30.3265L48.328 29.6735ZM39.1584 5.19318H38.9311V7.19318H39.1584V5.19318ZM37.9861 5.86615L29.7475 29.673L31.6375 30.327L39.8761 6.52021L37.9861 5.86615ZM31.4737 19.608H46.5874V17.608H31.4737V19.608ZM45.5874 18.608V22.3011H47.5874V18.608H45.5874ZM46.5874 21.3011H31.4737V23.3011H46.5874V21.3011ZM32.4737 22.3011V18.608H30.4737V22.3011H32.4737ZM56.2429 30H55.2429V31H56.2429V30ZM56.2429 0.90909V-0.09091H55.2429V0.90909H56.2429ZM60.6321 0.90909H61.6321V-0.09091H60.6321V0.90909ZM60.6321 26.2216H59.6321V27.2216H60.6321V26.2216ZM73.8139 26.2216H74.8139V25.2216H73.8139V26.2216ZM73.8139 30V31H74.8139V30H73.8139ZM57.2429 30V0.90909H55.2429V30H57.2429ZM56.2429 1.90909H60.6321V-0.09091H56.2429V1.90909ZM59.6321 0.90909V26.2216H61.6321V0.90909H59.6321ZM60.6321 27.2216H73.8139V25.2216H60.6321V27.2216ZM72.8139 26.2216V30H74.8139V26.2216H72.8139ZM73.8139 29H56.2429V31H73.8139V29ZM101.254 23.4659L102.144 23.9207L102.145 23.9192L101.254 23.4659ZM96.5803 28.608L97.0984 29.4633L97.0996 29.4625L96.5803 28.608ZM83.1143 28.608L82.5932 29.4615L82.598 29.4644L83.1143 28.608ZM78.4553 23.4517L79.3466 22.9985L79.3466 22.9985L78.4553 23.4517ZM78.4553 7.45739L79.3459 7.91216L79.3466 7.91063L78.4553 7.45739ZM83.1143 2.31534L83.6325 3.17065L83.6336 3.16993L83.1143 2.31534ZM96.5803 2.31534L96.0591 3.16884L96.064 3.17175L96.5803 2.31534ZM101.254 7.45739L100.362 7.91063L100.363 7.91216L101.254 7.45739ZM97.4609 9.47443L96.5542 9.89617L96.5572 9.90252L97.4609 9.47443ZM94.3359 5.78125L93.7967 6.62344L93.8038 6.62789L94.3359 5.78125ZM85.3729 5.78125L85.9078 6.62617L85.9121 6.62341L85.3729 5.78125ZM82.2479 9.47443L81.3432 9.04838L81.3421 9.05068L82.2479 9.47443ZM82.2479 21.4489L81.3411 21.8706L81.3441 21.8769L82.2479 21.4489ZM85.3729 25.142L84.8336 25.9842L84.838 25.987L85.3729 25.142ZM94.3359 25.142L94.8708 25.987L94.8724 25.986L94.3359 25.142ZM97.4609 21.4489L96.5562 21.0228L96.5552 21.0251L97.4609 21.4489ZM101.958 15.4545C101.958 18.44 101.412 20.9478 100.362 23.0127L102.145 23.9192C103.368 21.5143 103.958 18.6812 103.958 15.4545H101.958ZM100.363 23.0111C99.304 25.0849 97.8692 26.6546 96.061 27.7534L97.0996 29.4625C99.2497 28.156 100.93 26.2976 102.144 23.9207L100.363 23.0111ZM96.0621 27.7526C94.2626 28.8428 92.2052 29.3977 89.8615 29.3977V31.3977C92.5367 31.3977 94.9585 30.7595 97.0984 29.4633L96.0621 27.7526ZM89.8615 29.3977C87.5076 29.3977 85.4401 28.8424 83.6306 27.7515L82.598 29.4644C84.7469 30.7599 87.1775 31.3977 89.8615 31.3977V29.3977ZM83.6355 27.7545C81.8375 26.6567 80.4066 25.083 79.3466 22.9985L77.5639 23.905C78.7767 26.2901 80.4518 28.154 82.5932 29.4614L83.6355 27.7545ZM79.3466 22.9985C78.2965 20.9332 77.7507 18.43 77.7507 15.4545H75.7507C75.7507 18.6723 76.3413 21.5005 77.5639 23.905L79.3466 22.9985ZM77.7507 15.4545C77.7507 12.4689 78.2968 9.96663 79.3459 7.91216L77.5647 7.00261C76.341 9.3989 75.7507 12.228 75.7507 15.4545H77.7507ZM79.3466 7.91063C80.4063 5.82669 81.8363 4.25871 83.6325 3.17065L82.5962 1.46003C80.453 2.75833 78.777 4.61838 77.5639 7.00414L79.3466 7.91063ZM83.6336 3.16993C85.4427 2.07067 87.5091 1.51136 89.8615 1.51136V-0.488637C87.176 -0.488637 84.7444 0.15471 82.595 1.46075L83.6336 3.16993ZM89.8615 1.51136C92.2037 1.51136 94.26 2.07031 96.0591 3.16882L97.1014 1.46186C94.9611 0.155069 92.5382 -0.488637 89.8615 -0.488637V1.51136ZM96.064 3.17175C97.8693 4.26011 99.3032 5.82792 100.362 7.91063L102.145 7.00414C100.931 4.61716 99.2496 2.75693 97.0966 1.45893L96.064 3.17175ZM100.363 7.91216C101.412 9.96663 101.958 12.4689 101.958 15.4545H103.958C103.958 12.228 103.368 9.3989 102.144 7.00261L100.363 7.91216ZM99.6115 15.4545C99.6115 12.9845 99.212 10.8352 98.3647 9.04634L96.5572 9.90252C97.2439 11.3523 97.6115 13.1897 97.6115 15.4545H99.6115ZM98.3677 9.0527C97.5411 7.27552 96.3801 5.88498 94.8681 4.93461L93.8038 6.62789C94.9433 7.34418 95.8657 8.41577 96.5542 9.89616L98.3677 9.0527ZM94.8752 4.93909C93.3871 3.9863 91.706 3.51705 89.8615 3.51705V5.51705C91.3503 5.51705 92.6522 5.8906 93.7967 6.62341L94.8752 4.93909ZM89.8615 3.51705C88.0087 3.51705 86.3226 3.9857 84.8336 4.93909L85.9121 6.62341C87.0557 5.8912 88.362 5.51705 89.8615 5.51705V3.51705ZM84.838 4.93634C83.3374 5.88636 82.1783 7.27501 81.3432 9.04838L83.1526 9.90048C83.8515 8.41628 84.7758 7.34281 85.9078 6.62616L84.838 4.93634ZM81.3421 9.05068C80.5058 10.8383 80.1115 12.986 80.1115 15.4545H82.1115C82.1115 13.1883 82.4748 11.3492 83.1536 9.89819L81.3421 9.05068ZM80.1115 15.4545C80.1115 17.9234 80.5059 20.0747 81.3411 21.8706L83.1546 21.0271C82.4747 19.5654 82.1115 17.7205 82.1115 15.4545H80.1115ZM81.3441 21.8769C82.1794 23.6404 83.3374 25.0261 84.8336 25.9842L85.9121 24.2999C84.7758 23.5723 83.8504 22.496 83.1516 21.0208L81.3441 21.8769ZM84.838 25.987C86.3265 26.9293 88.011 27.392 89.8615 27.392V25.392C88.3598 25.392 87.0518 25.0214 85.9078 24.2971L84.838 25.987ZM89.8615 27.392C91.7038 27.392 93.3833 26.9287 94.8708 25.987L93.801 24.2971C92.656 25.022 91.3526 25.392 89.8615 25.392V27.392ZM94.8724 25.986C96.3801 25.0275 97.5399 23.6399 98.3667 21.8726L96.5552 21.0251C95.8668 22.4965 94.9433 23.571 93.7995 24.2981L94.8724 25.986ZM98.3656 21.8749C99.2119 20.0778 99.6115 17.9249 99.6115 15.4545H97.6115C97.6115 17.7191 97.244 19.5623 96.5562 21.0228L98.3656 21.8749ZM108.43 30H107.43V31H108.43V30ZM108.43 0.90909V-0.09091H107.43V0.90909H108.43ZM124.411 2.07386L123.948 2.96025L123.95 2.96145L124.411 2.07386ZM127.763 5.2983L126.882 5.77203L126.883 5.77458L127.763 5.2983ZM127.749 14.7301L126.873 14.2465L126.872 14.2487L127.749 14.7301ZM124.396 17.8693L123.949 16.9749L123.947 16.976L124.396 17.8693ZM110.93 18.9915H109.93V19.9915H110.93V18.9915ZM110.93 15.2131V14.2131H109.93V15.2131H110.93ZM121.854 14.6023L121.441 13.6912L121.438 13.6929L121.854 14.6023ZM123.814 7.1733L122.926 7.63302L122.93 7.64118L123.814 7.1733ZM121.839 5.3267L121.4 6.22499L121.411 6.23044L121.839 5.3267ZM112.82 4.6733V3.6733H111.82V4.6733H112.82ZM112.82 30V31H113.82V30H112.82ZM122.791 16.875L123.668 16.3947L123.384 15.875H122.791V16.875ZM129.979 30V31H131.666L130.856 29.5197L129.979 30ZM124.979 30L124.098 30.473L124.381 31H124.979V30ZM117.933 16.875V15.875H116.261L117.052 17.348L117.933 16.875ZM109.43 30V0.90909H107.43V30H109.43ZM108.43 1.90909H118.8V-0.09091H108.43V1.90909ZM118.8 1.90909C120.945 1.90909 122.644 2.27955 123.948 2.96025L124.873 1.18748C123.203 0.315143 121.162 -0.09091 118.8 -0.09091V1.90909ZM123.95 2.96145C125.283 3.65325 126.247 4.59045 126.882 5.77203L128.643 4.82456C127.802 3.25993 126.531 2.04751 124.871 1.18628L123.95 2.96145ZM126.883 5.77458C127.531 6.97083 127.871 8.37914 127.871 10.0284H129.871C129.871 8.09813 129.471 6.35304 128.642 4.82201L126.883 5.77458ZM127.871 10.0284C127.871 11.6653 127.528 13.0614 126.873 14.2466L128.624 15.2137C129.465 13.6904 129.871 11.9521 129.871 10.0284H127.871ZM126.872 14.2487C126.24 15.3991 125.281 16.309 123.949 16.9749L124.844 18.7637C126.504 17.9334 127.78 16.7505 128.625 15.2116L126.872 14.2487ZM123.947 16.976C122.64 17.6336 120.936 17.9915 118.786 17.9915V19.9915C121.143 19.9915 123.179 19.6012 124.846 18.7626L123.947 16.976ZM118.786 17.9915H110.93V19.9915H118.786V17.9915ZM111.93 18.9915V15.2131H109.93V18.9915H111.93ZM110.93 16.2131H118.388V14.2131H110.93V16.2131ZM118.388 16.2131C119.892 16.2131 121.204 15.9992 122.27 15.5116L121.438 13.6929C120.723 14.0197 119.724 14.2131 118.388 14.2131V16.2131ZM122.266 15.5133C123.34 15.027 124.176 14.2928 124.709 13.2995L122.947 12.3539C122.647 12.9136 122.166 13.3632 121.441 13.6913L122.266 15.5133ZM124.709 13.2995C125.22 12.3472 125.453 11.2441 125.453 10.0284H123.453C123.453 10.9908 123.269 11.7532 122.947 12.3539L124.709 13.2995ZM125.453 10.0284C125.453 8.80018 125.214 7.68133 124.698 6.70541L122.93 7.64118C123.266 8.2751 123.453 9.05967 123.453 10.0284H125.453ZM124.702 6.71359C124.175 5.69503 123.344 4.93305 122.268 4.42297L121.411 6.23044C122.134 6.57263 122.62 7.04171 122.926 7.633L124.702 6.71359ZM122.279 4.42849C121.204 3.90225 119.867 3.6733 118.331 3.6733V5.6733C119.692 5.6733 120.695 5.87995 121.4 6.22492L122.279 4.42849ZM118.331 3.6733H112.82V5.6733H118.331V3.6733ZM111.82 4.6733V30H113.82V4.6733H111.82ZM112.82 29H108.43V31H112.82V29ZM121.914 17.3553L129.102 30.4803L130.856 29.5197L123.668 16.3947L121.914 17.3553ZM129.979 29H124.979V31H129.979V29ZM125.86 29.527L118.814 16.402L117.052 17.348L124.098 30.473L125.86 29.527ZM117.933 17.875H122.791V15.875H117.933V17.875ZM136.669 30V31H137.381L137.614 30.327L136.669 30ZM132.01 30L131.069 29.6614L130.587 31H132.01V30ZM142.479 0.90909V-0.09091H141.776L141.538 0.570484L142.479 0.90909ZM147.55 0.90909L148.491 0.570484L148.253 -0.09091H147.55V0.90909ZM158.018 30V31H159.441L158.959 29.6614L158.018 30ZM153.359 30L152.414 30.3265L152.647 31H153.359V30ZM145.135 6.19318L146.08 5.86665L145.847 5.19318H145.135V6.19318ZM144.908 6.19318V5.19318H144.196L143.963 5.86615L144.908 6.19318ZM137.45 18.608V17.608H136.45V18.608H137.45ZM152.564 18.608H153.564V17.608H152.564V18.608ZM152.564 22.3011V23.3011H153.564V22.3011H152.564ZM137.45 22.3011H136.45V23.3011H137.45V22.3011ZM136.669 29H132.01V31H136.669V29ZM132.951 30.3386L143.42 1.2477L141.538 0.570484L131.069 29.6614L132.951 30.3386ZM142.479 1.90909H147.55V-0.09091H142.479V1.90909ZM146.609 1.2477L157.078 30.3386L158.959 29.6614L148.491 0.570484L146.609 1.2477ZM158.018 29H153.359V31H158.018V29ZM154.305 29.6735L146.08 5.86665L144.19 6.51971L152.414 30.3265L154.305 29.6735ZM145.135 5.19318H144.908V7.19318H145.135V5.19318ZM143.963 5.86615L135.724 29.673L137.614 30.327L145.853 6.52021L143.963 5.86615ZM137.45 19.608H152.564V17.608H137.45V19.608ZM151.564 18.608V22.3011H153.564V18.608H151.564ZM152.564 21.3011H137.45V23.3011H152.564V21.3011ZM138.45 22.3011V18.608H136.45V22.3011H138.45ZM185.7 0.90909H186.7V-0.09091H185.7V0.90909ZM185.7 30V31H186.7V30H185.7ZM181.665 30L180.844 30.5696L181.142 31H181.665V30ZM166.879 8.66477L167.7 8.09514L167.402 7.66477H166.879V8.66477ZM166.609 8.66477V7.66477H165.609V8.66477H166.609ZM166.609 30V31H167.609V30H166.609ZM162.219 30H161.219V31H162.219V30ZM162.219 0.90909V-0.09091H161.219V0.90909H162.219ZM166.282 0.90909L167.104 0.339596L166.806 -0.09091H166.282V0.90909ZM181.083 22.2727L180.261 22.8422L180.559 23.2727H181.083V22.2727ZM181.353 22.2727V23.2727H182.353V22.2727H181.353ZM181.353 0.90909V-0.09091H180.353V0.90909H181.353ZM184.7 0.90909V30H186.7V0.90909H184.7ZM185.7 29H181.665V31H185.7V29ZM182.487 29.4304L167.7 8.09514L166.057 9.23441L180.844 30.5696L182.487 29.4304ZM166.879 7.66477H166.609V9.66477H166.879V7.66477ZM165.609 8.66477V30H167.609V8.66477H165.609ZM166.609 29H162.219V31H166.609V29ZM163.219 30V0.90909H161.219V30H163.219ZM162.219 1.90909H166.282V-0.09091H162.219V1.90909ZM165.46 1.47858L180.261 22.8422L181.905 21.7032L167.104 0.339596L165.46 1.47858ZM181.083 23.2727H181.353V21.2727H181.083V23.2727ZM182.353 22.2727V0.90909H180.353V22.2727H182.353ZM181.353 1.90909H185.7V-0.09091H181.353V1.90909ZM190.668 4.6875H189.668V5.6875H190.668V4.6875ZM190.668 0.90909V-0.09091H189.668V0.90909H190.668ZM213.182 0.90909H214.182V-0.09091H213.182V0.90909ZM213.182 4.6875V5.6875H214.182V4.6875H213.182ZM204.105 4.6875V3.6875H203.105V4.6875H204.105ZM204.105 30V31H205.105V30H204.105ZM199.73 30H198.73V31H199.73V30ZM199.73 4.6875H200.73V3.6875H199.73V4.6875ZM191.668 4.6875V0.90909H189.668V4.6875H191.668ZM190.668 1.90909H213.182V-0.09091H190.668V1.90909ZM212.182 0.90909V4.6875H214.182V0.90909H212.182ZM213.182 3.6875H204.105V5.6875H213.182V3.6875ZM203.105 4.6875V30H205.105V4.6875H203.105ZM204.105 29H199.73V31H204.105V29ZM200.73 30V4.6875H198.73V30H200.73ZM199.73 3.6875H190.668V5.6875H199.73V3.6875Z" fill="#D41E1E"/>
</svg>
